# xmcd CD database file generated by Grip 2.96
# 
# Track frame offsets:
#       150
#       21212
#       45451
#       71626
#       85057
#       102629
#       117711
#       138240
#       178429
#       194928
#       208772
#       244739
# 
# Disc length: 3490 seconds
# 
# Revision: 0
# Processed by: cddbd v1.4PL0 Copyright (c) Steve Scherf et al.
# Submitted via: Grip 2.96
# 
DISCID=bd0da00c
DTITLE=Stevie Cochran - Got to have a Song
DYEAR=1900
DGENRE=
TTITLE0=Got to have a Song
TTITLE1=Between the lines
TTITLE2=Hands
TTITLE3=Next Stage
TTITLE4=The bad road
TTITLE5=Ain't it funny
TTITLE6=Misunderstood
TTITLE7=Let me go
TTITLE8=Heckle and Jeckle
TTITLE9=Good to me
TTITLE10=Dinosaur Boogie
TTITLE11=I'll be there
EXTD=
EXTT0=
EXTT1=
EXTT2=
EXTT3=
EXTT4=
EXTT5=
EXTT6=
EXTT7=
EXTT8=
EXTT9=
EXTT10=
EXTT11=
PLAYORDER=
